<svg width="21" height="22" viewBox="0 0 21 22" fill="none" xmlns="http://www.w3.org/2000/svg">
<path d="M10.5 22C16.299 22 21 17.0751 21 11C21 4.92487 16.299 0 10.5 0C4.70101 0 0 4.92487 0 11C0 17.0751 4.70101 22 10.5 22Z" fill="url(#paint0_linear_2_129)"/>
<path fill-rule="evenodd" clip-rule="evenodd" d="M4.75314 10.8838C7.8141 9.48671 9.85522 8.56565 10.8765 8.12063C13.7925 6.85003 14.3984 6.62931 14.7933 6.62203C14.8802 6.62042 15.0744 6.64297 15.2002 6.74992C15.3064 6.84021 15.3356 6.9622 15.3496 7.04781C15.3636 7.13342 15.381 7.32845 15.3672 7.48084C15.2092 9.2202 14.5254 13.4412 14.1776 15.3893C14.0304 16.2136 13.7406 16.49 13.46 16.517C12.8502 16.5758 12.3872 16.0949 11.7966 15.6893C10.8725 15.0547 10.3504 14.6596 9.45339 14.0403C8.41671 13.3247 9.08875 12.9313 9.67955 12.2884C9.83416 12.1202 12.5208 9.56019 12.5728 9.32795C12.5793 9.29891 12.5853 9.19064 12.5239 9.13347C12.4625 9.07631 12.3719 9.09586 12.3065 9.1114C12.2138 9.13344 10.7375 10.1557 7.87754 12.1782C7.45849 12.4796 7.07893 12.6265 6.73886 12.6188C6.36395 12.6103 5.64279 12.3967 5.10667 12.2142C4.44911 11.9902 3.92649 11.8719 3.972 11.4916C3.9957 11.2935 4.25608 11.0909 4.75314 10.8838Z" fill="white"/>
<defs>
<linearGradient id="paint0_linear_2_129" x1="10.5" y1="0" x2="10.5" y2="21.8368" gradientUnits="userSpaceOnUse">
<stop stop-color="#2AABEE"/>
<stop offset="1" stop-color="#229ED9"/>
</linearGradient>
</defs>
</svg>
