<svg width="21" height="22" viewBox="0 0 21 22" fill="none" xmlns="http://www.w3.org/2000/svg">
<g clip-path="url(#clip0_2_138)">
<path d="M20.5819 5.91229C20.4632 5.46553 20.2292 5.05779 19.9034 4.72987C19.5775 4.40195 19.1713 4.16536 18.7253 4.04377C17.0835 3.60229 10.521 3.60229 10.521 3.60229C10.521 3.60229 3.9585 3.60229 2.31668 4.04377C1.87068 4.16536 1.46445 4.40195 1.13862 4.72987C0.812798 5.05779 0.578813 5.46553 0.460087 5.91229C0.0209961 7.56127 0.0209961 11 0.0209961 11C0.0209961 11 0.0209961 14.4388 0.460087 16.0877C0.578813 16.5345 0.812798 16.9423 1.13862 17.2702C1.46445 17.5981 1.87068 17.8347 2.31668 17.9563C3.9585 18.3977 10.521 18.3977 10.521 18.3977C10.521 18.3977 17.0835 18.3977 18.7253 17.9563C19.1713 17.8347 19.5775 17.5981 19.9034 17.2702C20.2292 16.9423 20.4632 16.5345 20.5819 16.0877C21.021 14.4388 21.021 11 21.021 11C21.021 11 21.021 7.56127 20.5819 5.91229Z" fill="#FF0302"/>
<path d="M8.37305 14.1226V7.87744L13.8617 11L8.37305 14.1226Z" fill="#FEFEFE"/>
</g>
<defs>
<clipPath id="clip0_2_138">
<rect width="21" height="21" fill="white" transform="translate(0 0.5)"/>
</clipPath>
</defs>
</svg>
