<svg width="21" height="22" viewBox="0 0 21 22" fill="none" xmlns="http://www.w3.org/2000/svg">
<g clip-path="url(#clip0_2_150)">
<path d="M10.5 21.5C16.299 21.5 21 16.799 21 11C21 5.20101 16.299 0.5 10.5 0.5C4.70101 0.5 0 5.20101 0 11C0 16.799 4.70101 21.5 10.5 21.5Z" fill="#FF4500"/>
<path d="M17.4999 11C17.4999 10.1526 16.8121 9.46491 15.9648 9.46491C15.5472 9.46491 15.1788 9.62456 14.9086 9.89474C13.8648 9.14562 12.4156 8.65439 10.8192 8.59298L11.5192 5.31404L13.7911 5.79298C13.8156 6.37018 14.2946 6.83684 14.8841 6.83684C15.4858 6.83684 15.977 6.34562 15.977 5.74386C15.977 5.14211 15.4858 4.65088 14.8841 4.65088C14.4542 4.65088 14.0858 4.89649 13.9139 5.26491L11.3718 4.72456C11.2981 4.71228 11.2244 4.72456 11.163 4.76141C11.1016 4.79825 11.0648 4.85965 11.0402 4.93334L10.2665 8.59298C8.63319 8.64211 7.17178 9.12105 6.11564 9.89474C5.84547 9.63684 5.46476 9.46491 5.0595 9.46491C4.21213 9.46491 3.52441 10.1526 3.52441 11C3.52441 11.6263 3.89284 12.1544 4.43319 12.4C4.40862 12.5474 4.39634 12.707 4.39634 12.8667C4.39634 15.2246 7.13494 17.1281 10.5244 17.1281C13.9139 17.1281 16.6525 15.2246 16.6525 12.8667C16.6525 12.707 16.6402 12.5597 16.6156 12.4123C17.1192 12.1667 17.4999 11.6263 17.4999 11ZM6.99985 12.093C6.99985 11.4912 7.49108 11 8.09284 11C8.69459 11 9.18582 11.4912 9.18582 12.093C9.18582 12.6947 8.69459 13.186 8.09284 13.186C7.49108 13.186 6.99985 12.6947 6.99985 12.093ZM13.1034 14.9789C12.3542 15.7281 10.9297 15.7772 10.5121 15.7772C10.0946 15.7772 8.65775 15.7158 7.9209 14.9789C7.81038 14.8684 7.81038 14.6842 7.9209 14.5737C8.03143 14.4632 8.21564 14.4632 8.32617 14.5737C8.79283 15.0404 9.79985 15.2123 10.5244 15.2123C11.249 15.2123 12.2437 15.0404 12.7227 14.5737C12.8332 14.4632 13.0174 14.4632 13.1279 14.5737C13.2139 14.6965 13.2139 14.8684 13.1034 14.9789ZM12.9069 13.186C12.3051 13.186 11.8139 12.6947 11.8139 12.093C11.8139 11.4912 12.3051 11 12.9069 11C13.5086 11 13.9999 11.4912 13.9999 12.093C13.9999 12.6947 13.5086 13.186 12.9069 13.186Z" fill="white"/>
</g>
<defs>
<clipPath id="clip0_2_150">
<rect width="21" height="21" fill="white" transform="translate(0 0.5)"/>
</clipPath>
</defs>
</svg>
